<svg xmlns="http://www.w3.org/2000/svg" xml:space="preserve" id="Layer_1" x="0" y="0" version="1.1" viewBox="0 0 31.9 32"><style>.st0{fill:#032249}.st8{fill:#006aad}</style><path d="M15.7 27.1c-.5-.5-1.1-1-1.7-1.5-2.4-2-5.4-4.6-6.4-8.8-.7-2.8-.1-5.2.5-6.7H6.6l1-1.4c.9-1.3 2-2.4 3.3-3.1 1-.6 2.1-.9 3.3-1.1.4-.1.8-.1 1.2-.1 2.4 0 4.3 1.1 4.4 1.2h.9c2 0 3.8.3 5.4 1 1.4.6 2.5 1.4 3.4 2.4 2.1 2.2 2.3 4.8 2.3 5.5l.1 1.8-1.5-1s-2.1-1.4-5.2-1.4c-1.6 0-3.1.4-4.6 1.1 1.4 1.8 1.9 4.1 1.4 6.3-.6 3-3.1 4.8-5.3 6l-.6.3z" class="st0"/><path d="m19.3 14.8-.1-.1V6.4s-2.4-1.4-5-1c-1.9.3-4.1 1.1-6 3.9h1.3s-2.2 3.2-1.1 7.3c1.2 4.9 5.4 7.5 7.8 9.8-3.5-8.3 3.1-11.6 3.1-11.6" style="fill:#00579a"/><path d="M20.1 11.3v2.8c6-2.9 10.8.3 10.8.3-4.3-5.1-10.8-3.1-10.8-3.1" style="fill:#ec4e1c"/><path d="M20.1 6.5v4.8s6.5-2.1 10.8 3.1c-.1-2.5-2.1-8.1-10.8-7.9" style="fill:#fbb916"/><path d="M18.9 6.2s-5.7-.4-7.5 4.7c-1.9 5.2 2.5 8.9 2.5 8.9s-.5-5.8 5.3-8.3V6.4z" style="fill:#006bb0"/><path d="M21.1 21c.4-2.1-.1-4.4-1.8-6.2 0 0-6.6 3.3-3 11.6 2.5-1.4 4.3-3 4.8-5.4" style="fill:#0069af"/><circle cx="16.6" cy="9.6" r="1.1" style="fill:#05254a"/><path d="M2.3 14c.2.1.2.1.2.3v2q0 .45.3.9c.6.7 1.3 1.4 1.9 2.2.5.6 1 .9 1.8.8.1 0 .2 0 .3.2.4.5.9 1 1.3 1.5.3.1.6.3.9.4.5.1 1 0 1.5 0h.2l-.7-.9h-.5c-.3 0-.5-.1-.7-.3-.7-.8-1.3-1.6-2.1-2.4-.4-.5-.6-.9-.6-1.5 0-.1 0-.2.2-.3.6-.3.8-.9.5-1.5-.2-.6-.9-.9-1.5-.7-.5.2-.8.5-.9 1.1-.1.4.2.9.7 1.2.1 0 .2 0 .2.1v.8c0 .3.1.6.3.8.1.1.2.3.4.4-.2 0-.2-.1-.3-.2-.7-.8-1.4-1.6-2-2.4-.1-.1-.2-.3-.2-.5v-1.9c0-.1 0-.2.2-.2.6-.3.9-.7 1-1.4 0-.8-.5-1.4-1.2-1.6-.8-.1-1.5.3-1.8 1.1-.4.9-.1 1.7.6 2" class="st0"/><path d="M10.8 22.5q-.15 0 0 0H6q-.3 0-.6-.3c-.8-.8-1.6-1.7-2.4-2.5-.1-.1-.1-.1 0-.2.2-.6.2-1.1-.2-1.6s-.9-.6-1.5-.5c-.8.2-1.4 1.1-1.1 2 .3.8 1.2 1.3 2 .9.1-.1.2 0 .3.1.7.8 1.5 1.6 2.2 2.4.3.4.7.5 1.2.5h5.4c.1 0 .2 0 .3.1z" class="st0"/><circle cx="5.7" cy="15.9" r=".5" class="st8"/><circle cx="2.9" cy="12.6" r=".7" class="st8"/><circle cx="1.5" cy="18.9" r=".7" class="st8"/></svg>